<?xml version="1.0" encoding="UTF-8"?> <svg xmlns="http://www.w3.org/2000/svg" xmlns:xlink="http://www.w3.org/1999/xlink" id="Capa_1" version="1.1" viewBox="0 0 307.9 187.5"><defs><style> .st0 { fill: #fff; } .st1 { fill: none; } .st2 { fill: url(#Degradado_sin_nombre_2); } .st3 { clip-path: url(#clippath); } </style><clipPath id="clippath"><path class="st1" d="M6.1,60.2c4.1,2.7,7.4,6,10,9.8.4.2.7.4,1,.6l3.7,2.1c-2.6-4.1-6.2-7.6-10.7-10.3l-.4-.3c-1.5-.9-3.1-1.8-4.8-2.7.4.3.8.5,1.2.8M13.5,59.1c5.8,3.9,9.8,9.1,11.9,15.5,0,.1,0,.3,0,.4,1.3.6,2.6,1.1,4,1.6-.1-.4-.2-.9-.3-1.3-2.1-5.9-6-10.6-11.7-14.1-.2,0-.3-.1-.4-.3-1.7-1.1-3.5-2.1-5.4-3.1.6.4,1.2.8,1.8,1.2M21.1,58c5.6,4,9.3,9.3,11.1,15.7.3,1.2.4,2.5.4,3.8,1.2.3,2.5.5,3.9.7,0-1.4-.2-2.7-.5-3.9-1.8-5.9-5.5-10.7-10.9-14.2-.2,0-.3-.2-.4-.3-1.8-1.2-3.8-2.3-5.8-3.4.8.5,1.5,1,2.3,1.6M28.5,56.9c5.3,4,8.8,9.4,10.3,15.9.3,1.8.3,3.7,0,5.7,1.3,0,2.6.1,3.9.1.2-1.9.1-3.6-.2-5.3-1.5-6-5-10.9-10.2-14.4-.2,0-.3-.2-.4-.3-1.9-1.3-3.8-2.5-5.9-3.6.8.6,1.6,1.2,2.4,1.8M36,55.9c5.1,4.1,8.3,9.5,9.4,16.1.3,2,.2,4.3-.3,6.6,1.3,0,2.7-.2,4-.3.3-2.1.4-4,.1-5.8-1.2-6.1-4.4-11-9.4-14.6-.1,0-.3-.1-.3-.3-2-1.5-4.2-2.9-6.6-4.1,1.1.8,2.1,1.6,3.1,2.4M43.5,54.8c4.9,4.1,7.8,9.6,8.7,16.2.2,2.1,0,4.4-.6,6.9,1.3-.2,2.7-.4,4.1-.7.4-2.1.5-4,.3-5.8-.9-6.1-3.9-11.1-8.7-14.7l-.3-.3c-2.1-1.6-4.4-3.1-6.9-4.4,1.2.9,2.3,1.8,3.4,2.7M51,53.7c4.7,4.2,7.3,9.7,7.8,16.4,0,2.1-.2,4.3-.9,6.7,1.4-.3,2.8-.6,4.3-.9.4-1.9.6-3.7.5-5.4-.6-6.1-3.3-11.2-8-14.9,0-.1-.1-.2-.2-.3-2.1-1.8-4.5-3.3-7.1-4.7,1.3,1,2.5,2,3.6,3M58.5,52.7c4.5,4.2,6.9,9.8,7.1,16.6,0,1.9-.4,3.9-.9,6,1.4-.4,2.8-.7,4.2-1.1.4-1.6.5-3.1.5-4.6-.3-6.2-2.8-11.3-7.2-15,0-.1-.1-.2-.2-.3-2.1-1.8-4.5-3.5-7.1-4.9h-.2c1.4.9,2.7,2.1,3.9,3.3M66,51.6c4.3,4.2,6.4,9.9,6.2,16.7-.1,1.6-.4,3.3-.9,5.1h.6c0-.1,3.1-1.1,3.1-1.1l.6-.2c.3-1.2.4-2.4.5-3.5,0-6.2-2.3-11.4-6.5-15.1,0-.1-.1-.2-.2-.3-2-1.9-4.3-3.5-6.9-4.9-.1,0-.3-.1-.4-.2,1.4,1.1,2.7,2.3,3.9,3.6M62.1,48c0,0-.1-.1-.2-.2,0,0,.1.1.2.2M73.5,50.5c4,4.3,5.9,10.1,5.4,17-.1,1.2-.4,2.5-.7,3.9,1.5-.5,2.9-1.1,4.4-1.6.1-.7.2-1.4.3-2,.3-6.3-1.7-11.5-5.7-15.3,0-.1-.1-.2-.2-.3-1.9-1.9-4.1-3.6-6.6-5-.3-.2-.7-.4-1-.6,1.6,1.2,3.1,2.5,4.3,4M81,49.5c3.9,4.3,5.5,10.2,4.7,17.1-.1.7-.3,1.4-.4,2.1l2.5-1c.6-.3,1.2-.5,1.8-.8v-.2c.6-6.4-1.1-11.7-4.9-15.5l-.2-.3c-1.8-1.9-4-3.6-6.4-5-.4-.3-.9-.5-1.3-.7,1.6,1.3,3.1,2.7,4.4,4.3M88.4,48.4c3.7,4.4,5,10.4,3.8,17.4,1.4-.6,2.8-1.2,4.3-1.9.3-5.5-1.2-10.2-4.5-13.7,0-.1-.1-.2-.2-.3-1.7-1.9-3.8-3.6-6.2-5.1-.5-.3-1.1-.6-1.6-.9,1.7,1.4,3.2,2.9,4.4,4.6M95.9,47.3c3,4,4.2,9.2,3.5,15.2l1.3-.5c.8-.4,1.9-.9,2.8-1.4,0-4.6-1.4-8.5-4-11.5,0-.1-.1-.2-.2-.3-1.6-2-3.6-3.7-5.9-5.1-.6-.4-1.3-.8-2-1.2,1.7,1.5,3.3,3.1,4.5,4.9M103.3,46.3c2.4,3.5,3.4,7.8,3,12.8,1.3-.7,2.6-1.3,3.9-2-.3-3.5-1.4-6.6-3.3-9.2,0-.1-.1-.2-.2-.3-1.6-2-3.5-3.7-5.7-5.2-.7-.5-1.4-.9-2.2-1.3,1.8,1.5,3.3,3.3,4.5,5.2M110.9,45.2c1.8,2.9,2.7,6.3,2.7,10.1l3.5-1.9c-.4-2.5-1.3-4.7-2.7-6.7l-.2-.3c-1.5-2-3.3-3.7-5.5-5.2-.8-.5-1.6-1-2.4-1.5,1.8,1.6,3.4,3.4,4.6,5.4M114,38.6c1.7,1.6,3.2,3.5,4.3,5.5,1.2,2.2,2,4.7,2.2,7.4l3.3-1.9c-.4-1.5-1.1-2.8-1.9-4.1l-.2-.3c-1.4-2-3.1-3.7-5.2-5.2-.8-.5-1.6-1-2.4-1.5h0ZM121.6,37.4c1.7,1.6,3.1,3.5,4.1,5.6.7,1.4,1.2,2.9,1.5,4.5l2.6-1.6c-.1-.6-.5-1-.7-1.5l-.2-.3c-1.3-2-3-3.8-5-5.3-.8-.6-1.6-1.1-2.4-1.6h0ZM129.2,36.2h0c1.7,1.7,3.1,3.6,4.1,5.8.2.5.5,1.1.6,1.7l2.1-1.3c-1.1-1.7-2.6-3.3-4.3-4.6-.8-.6-1.6-1.1-2.4-1.6h-.1ZM136.9,34.9h0c1.4,1.5,2.5,3.1,3.3,4.8l1.5-1c-.7-.8-1.5-1.6-2.3-2.2-.8-.6-1.6-1.2-2.5-1.7h-.2ZM144.5,33.7c.6.7,1.2,1.4,1.7,2.1l.5-.3-.2-.7c-.6-.4-1.2-.9-1.8-1.3h-.2ZM121.4,33.3c-13.2,1.6-27.5,4.7-41,7.4-13.5,2.7-26.2,3.9-39.2,6-13,2.1-26.5,4.8-39.8,7.5-1.1.2-2.1,1.7-.9,1.5,13.1-2.6,26.2-5.2,39-7.3,12.9-2.1,25.1-3.4,38.3-6,13.2-2.6,26.6-5.4,39.5-7.3,11.6-1.6,22-1.6,32.4-1.5l2.2-1.3c-2.6-.1-5.3-.2-8-.2-7.2,0-14.7.4-22.5,1.2M149,27.5l-1.5.9c0,0,0,.1.1.2.8-.5,1.6-1.1,2.4-1.6l.6-.4c0,0-.1-.2-.2-.3l-1.5,1.1ZM141.9,28.3l-2.2,1.4c0,0,0,.1.1.2.7-.5,1.4-.9,2.1-1.4l2.9-1.8h0c1.5-.9,3-1.9,4.6-3l-.3-.5c-2.4,1.7-4.8,3.4-7.2,5M42.8,28c-.8.7-1.6,1.4-2.4,2-4.6,3.7-9.4,7.2-14.5,10.5-2.4,1.6-4.8,3.1-7.2,4.6,1.7-.9,3.4-1.9,5.1-2.8,3.3-1.9,6.6-3.9,9.8-6,6.4-4.1,12.5-8.6,17.9-13.5-2.9,1.7-5.8,3.5-8.8,5.2M135.2,29.1c-.1,0-1.4.9-1.4.9l2.9-1.7c3.8-2.3,7.5-4.7,11.2-7.3-.2-.2-.3-.5-.5-.7-3.9,3.1-8,6-12.2,8.8M143,19.1c-4.7,3.7-9.5,7.3-14.6,10.6l-.8.5,1.1-.7c5-3,9.9-6.2,14.6-9.6,1-.7,1.8-1.4,2.7-2v-.2c-.1,0-.2,0-.2,0-.2-.3-.4-.5-.5-.7-.7.6-1.6,1.4-2.4,2M58.2,18.9c-3.2,3.6-6.9,7.1-11,10.4-4.6,3.7-9.4,7.3-14.5,10.6-1.9,1.3-3.9,2.5-5.7,3.7,1.6-.9,3.2-1.8,4.7-2.7,3.3-1.9,6.5-3.9,9.7-6,7.2-4.6,13.8-9.8,19.6-15.4,1.5-1.5,2.9-3,4.2-4.5-2.3,1.3-4.7,2.6-7,3.9M136,19.9c-4.6,3.7-9.5,7.3-14.6,10.6,4.7-2.8,9.3-5.8,13.8-8.9,2.9-2.1,5.8-4.2,8.5-6.4h0c-.3-.4-.7-.7-.9-1.1-2.2,2-4.4,4-6.8,5.9M129.2,20.5c-4.5,3.6-9.2,7.1-14.1,10.3,4.1-2.5,8.2-5.1,12.2-7.9,3-2,5.8-4.2,8.6-6.4h0c1.8-1.5,3.6-3,5.3-4.6-.4-.4-.8-.8-1.3-1.2-3.3,3.4-6.9,6.6-10.7,9.8M69.4,12.7c-.9,1.4-1.9,2.7-3.1,4.1-3.5,4.1-7.6,8.1-12.3,11.8-4.6,3.7-9.4,7.3-14.5,10.6-1.4.9-2.8,1.8-4.3,2.7,1.5-.8,2.9-1.7,4.4-2.6,3.2-1.9,6.5-3.9,9.6-6,7.1-4.6,13.6-9.8,19.2-15.4,1.7-1.7,3.2-3.4,4.5-5.1.8-1,1.6-2.1,2.2-3.1-2,.9-4,1.9-5.9,2.9M135,9.5c-3.7,4.1-7.9,8.1-12.6,11.8-4.4,3.5-9,6.9-13.8,10.1,3.6-2.2,7.2-4.5,10.7-6.9,3-2,5.9-4.2,8.7-6.4h0c3.6-2.9,7-5.9,10.1-9-.6-.5-1.2-.9-1.7-1.3-.5.6-1,1.2-1.5,1.7M83,6.4c-1.4.6-2.9,1.2-4.4,1.9-1.3,2.5-3.1,5.2-5.4,7.8-3.5,4.1-7.7,8.1-12.3,11.8-4.6,3.7-9.4,7.3-14.5,10.6-1,.6-2,1.3-3,2,1.4-.8,2.9-1.6,4.3-2.5,3.2-2,6.4-4,9.5-6.1,7-4.6,13.4-9.9,18.9-15.4,1.6-1.7,3.2-3.4,4.5-5.1,1.4-1.8,2.6-3.6,3.5-5.4l-1.2.5ZM128.1,10.3c-3.7,4.1-7.9,8.1-12.6,11.8-4.3,3.5-8.8,6.8-13.5,9.9,3.1-1.9,6.2-3.9,9.3-6,3-2,6-4.2,8.9-6.4h0c5.4-4.1,10.2-8.6,14.3-13.2-.7-.5-1.5-.9-2.3-1.4-1.2,1.7-2.6,3.5-4.1,5.2M86.8,4.8c-1.4,3.4-3.7,6.9-6.7,10.5-3.5,4.1-7.7,8.1-12.3,11.8-4.6,3.7-9.5,7.3-14.5,10.6l-2.1,1.4c1.5-.9,3-1.7,4.4-2.6,3.2-1.9,6.4-4,9.4-6.1,6.9-4.7,13.3-9.9,18.6-15.4,1.6-1.7,3-3.4,4.3-5.1,1.7-2.2,3-4.4,4-6.6-1.7.5-3.4,1-5.2,1.6M121.3,11c-3.7,4.1-7.9,8-12.6,11.8-4.3,3.5-8.8,6.8-13.5,9.9,2.7-1.7,5.5-3.5,8.2-5.2,3-2,6-4.1,8.9-6.3,6.4-4.8,12.1-10.1,16.6-15.5h0c.5-.6.9-1.1,1.3-1.7-.9-.4-1.9-.9-2.9-1.2-1.6,2.7-3.6,5.5-6.1,8.3M95.9,2.2h0c-.5,0-1,.2-1.7.4h0c-1.4,3.9-4,8-7.5,12-3.5,4.1-7.7,8.1-12.4,11.8-4.6,3.7-9.5,7.3-14.5,10.6l-1,.7c1.5-.9,3.1-1.8,4.6-2.8,3.2-2,6.3-4,9.3-6.1,6.8-4.7,13-10,18.3-15.5,1.6-1.7,3-3.4,4.2-5.1,1.7-2.4,3.1-4.7,4-6.9-1.2.3-2.3.5-3.5.8M114.5,11.7c-3.6,4.1-7.9,8-12.6,11.8-4.3,3.5-8.9,6.8-13.6,10,2.4-1.5,4.8-3,7.2-4.5,3-2,6-4.1,8.9-6.3,6.5-4.8,12.3-10.1,17-15.5,1.4-1.7,2.6-3.3,3.7-5v-.3c-1-.3-2.2-.7-3.4-.9-1.6,3.4-4.1,7.1-7.2,10.6M101.8.9c-.1.3-.2.7-.4,1-1.5,3.9-4.1,8-7.7,12.1-3.6,4.1-7.8,8.1-12.4,11.8-4.6,3.7-9.5,7.3-14.5,10.6,1.6-1,3.2-1.9,4.8-2.9,3.1-2,6.2-4,9.3-6.2,6.7-4.7,12.9-10,18-15.4,1.5-1.7,2.9-3.4,4-5.1,1.6-2.2,2.8-4.4,3.7-6.5h0c-1.6.1-3.1.3-4.8.6M115.4.3c-1.6,3.9-4.3,8-7.8,12-3.6,4.1-7.8,8.1-12.5,11.8-4.4,3.5-8.9,6.9-13.7,10.1,2.1-1.2,4.1-2.5,6.1-3.8,3.1-2,6.1-4,9-6.2,6.6-4.7,12.5-10,17.3-15.5,1.4-1.6,2.7-3.3,3.8-4.9.7-1.1,1.3-2.1,1.9-3.1l-.8-.2c-1.1-.2-2.1-.3-3.3-.4,0,0,0,.2-.1.2M108.9,0c-.2.3-.3.7-.3.9-1.6,3.9-4.2,8-7.8,12.1-3.6,4.1-7.8,8.1-12.5,11.8-4.5,3.6-9.2,7.1-14.1,10.3,1.8-1,3.5-2.1,5.4-3.3,3.1-2,6.2-4.1,9.2-6.2,6.7-4.7,12.7-10,17.6-15.5,1.5-1.7,2.8-3.3,3.9-5,1.2-1.8,2.3-3.5,3-5.2-.4,0-.8,0-1.3,0-1,0-2.1,0-3.2,0"></path></clipPath><linearGradient id="Degradado_sin_nombre_2" data-name="Degradado sin nombre 2" x1="-178.7" y1="496.9" x2="-177.7" y2="496.9" gradientTransform="translate(-25421.4 -33579.6) rotate(180) scale(143.1 -67.7)" gradientUnits="userSpaceOnUse"><stop offset="0" stop-color="#51ad32"></stop><stop offset="0" stop-color="#51ad32"></stop><stop offset="0" stop-color="#48a431"></stop><stop offset="0" stop-color="#2f8d30"></stop><stop offset=".1" stop-color="#1b7a2f"></stop><stop offset=".2" stop-color="#0d6d2f"></stop><stop offset=".3" stop-color="#05662f"></stop><stop offset=".4" stop-color="#03642f"></stop><stop offset=".5" stop-color="#06672f"></stop><stop offset=".6" stop-color="#11712f"></stop><stop offset=".6" stop-color="#238230"></stop><stop offset=".7" stop-color="#3d9a31"></stop><stop offset=".7" stop-color="#51ad32"></stop><stop offset=".9" stop-color="#8cc01c"></stop><stop offset="1" stop-color="#d9da00"></stop></linearGradient></defs><g class="st3"><rect class="st2" x="-9.8" y="-35" width="170.8" height="148.7" transform="translate(-9.2 47.2) rotate(-32.8)"></rect></g><g><g><path class="st0" d="M71.1,76c.3-2.8,1-5.3,2.2-7.4,1.1-2.1,2.6-3.8,4.4-5.1,1.8-1.3,3.7-2.2,5.9-2.8,2.2-.6,4.5-.9,7.1-.9s5.1.3,7.7.8v5.6c-2.3-2-5.1-3-8.3-3s-4.3.5-6.3,1.5c-2,1-3.6,2.4-4.8,4.3-1.2,1.9-1.9,4-1.9,6.4s0,.7,0,.9c.2,2.4.8,4.4,1.7,6,.9,1.6,2,2.9,3.4,3.9,1.4,1,2.8,1.6,4.4,2,1.5.4,3.1.6,4.7.6s2.2,0,3.2-.3c1-.2,1.8-.4,2.4-.7v-7.1c0-1.4-.2-2.5-.5-3.3-.3-.8-.9-1.4-1.8-2h7.5c-.2.4-.3.7-.3,1.1,0,.3,0,1.1,0,2.3v9.7c0,1,.1,1.7.4,2.2-1.7.5-3.4.9-5.2,1.1-1.8.3-3.5.4-5.3.4-2.7,0-5.2-.3-7.6-.9-2.4-.6-4.6-1.6-6.5-2.9-1.9-1.3-3.5-3-4.6-5.1-1.1-2.1-1.7-4.6-1.8-7.4"></path><path class="st0" d="M106.1,87.6v-23.1c0-1,0-1.7-.2-2.3-.1-.6-.3-1-.5-1.3-.2-.3-.5-.5-.7-.7-.3-.2-.5-.3-.9-.5h10.4c1.6,0,3.1.1,4.5.4,1.3.3,2.5.8,3.6,1.4,1,.7,1.8,1.5,2.4,2.5.5,1,.8,2.2.8,3.5s-.4,2.9-1.1,4.1c-.7,1.2-1.7,2.2-2.8,2.9-1.2.8-2.3,1.3-3.5,1.5,1.5,1.9,2.8,3.6,3.9,5,1.1,1.4,2.2,2.7,3.3,4.1,1.1,1.3,2.3,2.5,3.5,3.6,1.2,1.1,2.5,2,3.8,2.7h-5.2c-.7,0-1.3,0-1.9-.2-.6-.1-1.1-.4-1.7-.8-.6-.4-1.3-1.1-2-1.9l-9.7-13.1c2.2-.8,3.8-1.5,4.9-2,1.1-.5,1.9-1.2,2.5-1.9.6-.7.9-1.7.9-2.8s0-.6,0-.7c0-1.5-.5-2.7-1.5-3.5-1-.8-2.5-1.3-4.4-1.3s-1.9.1-3,.3v23.9c0,.9.2,1.8.6,2.5.4.7.9,1.2,1.7,1.6h-9.7c.7-.2,1.3-.6,1.7-1.3.4-.7.6-1.5.6-2.4"></path><path class="st0" d="M131.5,81.2v-17.5c0-.9-.2-1.6-.5-2.2s-.8-1.2-1.4-1.9h8.6c-.4.4-.7,1-1,1.8-.3.8-.5,1.6-.5,2.3v16.8c0,2.8.7,4.9,2.1,6.1,1.4,1.2,3.1,1.8,5,1.8s4.6-.6,6-1.7c1.5-1.2,2.2-2.7,2.2-4.6v-16.8c0-1.4-.2-2.6-.5-3.5-.4-.9-.9-1.6-1.7-2.1h9c-.7.7-1.2,1.5-1.5,2.4-.3.9-.4,2-.4,3.2v21.6c0,.8,0,1.5.2,2,.1.6.4,1.1.7,1.5.3.4.8.7,1.4,1h-7.1v-3c-.3.3-.6.7-1.1,1.1-.5.5-1,.9-1.6,1.2-.6.4-1.4.7-2.5,1-1.1.3-2.3.4-3.8.4-2.8,0-5.1-.5-6.8-1.6-1.7-1.1-2.9-2.4-3.7-4.1-.7-1.6-1.1-3.3-1.1-5.2"></path><path class="st0" d="M164.7,86.8v-21.6c0-1.7-.2-2.9-.5-3.6-.3-.7-.9-1.2-1.7-1.6h10.4c2.9,0,5.2.4,7,1.3,1.8.8,3.1,1.9,3.8,3.1.7,1.2,1.1,2.5,1.1,3.8s0,.2,0,.2c0,0,0,.2,0,.2,0,1.8-.5,3.3-1.6,4.7-1.1,1.4-2.4,2.4-3.9,3.1-1.5.7-2.8,1.1-3.8,1.1s-2.5,0-3.2-.3c-.7-.2-1.3-.5-1.6-.9.2,0,.4,0,.7,0,1.3,0,2.6-.3,3.8-.9,1.2-.6,2.2-1.5,3-2.6.7-1.1,1.1-2.3,1.1-3.6s-.3-2.5-.9-3.4c-.6-.9-1.4-1.5-2.5-1.9-1-.4-2.3-.6-3.6-.6s-1.8,0-2.7.2v23.1c0,1.2.2,2.2.7,2.8.5.7,1.1,1.2,1.9,1.6h-10.1c.8-.4,1.4-1,1.9-1.7.5-.8.7-1.7.7-2.8"></path><path class="st0" d="M185.6,76.4c0-1.8.3-3.7,1-5.6.6-1.9,1.7-3.8,3-5.4,1.4-1.7,3.2-3.1,5.5-4.1,2.3-1.1,4.9-1.6,8-1.6s6.2.6,8.8,1.9c2.6,1.3,4.7,3.1,6.2,5.6s2.4,5.3,2.5,8.5c0,2.5-.6,5.1-1.9,7.7-1.3,2.6-3.2,4.8-5.7,6.5-2.5,1.7-5.6,2.6-9.2,2.6s-5.3-.4-7.5-1.2c-2.2-.8-4.1-1.9-5.6-3.4-1.5-1.4-2.7-3.1-3.6-5.1-.9-2-1.4-4.1-1.6-6.3M191.6,76c0,1.8.3,3.5,1,5.1.7,1.6,1.6,2.9,2.7,4.1,1.1,1.1,2.5,2,3.9,2.6,1.5.6,3,.9,4.6.9s3.2-.3,4.5-1c1.4-.7,2.6-1.5,3.6-2.7,1-1.1,1.8-2.4,2.3-3.9.5-1.4.8-2.9.8-4.4s0-.6,0-.7c-.1-2.1-.7-4.2-1.7-6.3-1-2-2.5-3.7-4.3-4.9-1.8-1.2-3.9-1.9-6.3-1.9s-2.8.3-4.1.8c-1.3.5-2.5,1.3-3.6,2.4-1.1,1.1-1.9,2.4-2.6,3.9-.6,1.5-.9,3.3-.9,5.2s0,.2,0,.4c0,.1,0,.2,0,.4"></path></g><g><path class="st0" d="M73.7,134.2v-21.6c0-1.7-.2-2.9-.5-3.6-.3-.7-.9-1.2-1.7-1.6h10.4c2.9,0,5.2.4,7,1.3,1.8.8,3.1,1.9,3.8,3.1.7,1.2,1.1,2.5,1.1,3.8s0,.2,0,.2c0,0,0,.2,0,.2,0,1.8-.5,3.3-1.6,4.7-1.1,1.4-2.4,2.4-3.9,3.1-1.5.7-2.8,1.1-3.8,1.1s-2.5,0-3.2-.3c-.7-.2-1.3-.5-1.6-.9.2,0,.4,0,.7,0,1.3,0,2.6-.3,3.8-.9,1.2-.6,2.2-1.5,3-2.6.7-1.1,1.1-2.3,1.1-3.6s-.3-2.5-.9-3.4c-.6-.9-1.4-1.5-2.5-1.9-1-.4-2.3-.6-3.6-.6s-1.8,0-2.7.2v23.1c0,1.2.2,2.2.7,2.8.5.7,1.1,1.2,1.9,1.6h-10.1c.8-.4,1.4-1,1.9-1.7.5-.8.7-1.7.7-2.8"></path><path class="st0" d="M97.9,133.4l9-22.8c.2-.5.3-.9.3-1.3,0-.7-.5-1.4-1.4-2h7.5l11.2,26.9c.3.7.7,1.3,1.1,1.7.4.5.8.9,1.2,1.4.4.4.9.9,1.4,1.4h-10.1c1.2-.6,1.8-1.3,1.8-2.3s0-.5-.1-.7c0-.2-.2-.5-.3-.8-.1-.3-.2-.6-.3-.7l-3-7.5h-11.6l-3,8.2c-.2.5-.2.9-.2,1.3s0,.7.2.9c.1.2.3.5.6.7.2.2.6.5.9.8h-9.3c2.3-1.6,3.6-3.4,4.1-5.2M105.8,123.4h9l-4.5-11.6-4.5,11.6Z"></path><path class="st0" d="M128.9,115.5c0-2,.5-3.7,1.6-5,1-1.4,2.4-2.4,4.1-3,1.7-.6,3.5-1,5.5-1s.9,0,1.1,0c1.1,0,2.4.1,3.9.3,1.5.2,2.5.5,3.2.8v5.2c-1.1-.8-2.3-1.5-3.8-2.1-1.5-.5-2.9-.8-4.3-.8-2.5,0-4.3,1-5.3,2.9-.3.4-.4.9-.4,1.4,0,1,.5,1.9,1.5,2.9,1,.9,2.2,1.7,3.7,2.4l5.2,2.6c1,.5,1.9,1.1,2.9,1.8.9.7,1.8,1.5,2.4,2.5.7,1,1,2,1,3.2s-.3,2.9-1,4.2c-.7,1.3-1.6,2.3-2.9,3.2-1.2.9-2.6,1.5-4.3,2-1.6.4-3.3.7-5.2.7-2.7,0-5.5-.5-8.3-1.4l-1.1-6c2.9,2.5,6.1,3.8,9.8,3.8s3.3-.3,4.6-1c1.3-.7,2.1-1.6,2.3-2.8.1-.5.2-1,.2-1.4,0-1-.4-1.9-1.1-2.7-.8-.8-2.1-1.7-3.9-2.6l-5.2-2.6c-1.5-.7-2.9-1.7-4.2-2.9-1.3-1.3-2-2.8-2.1-4.5"></path><path class="st0" d="M156.5,134.6v-21.6c0-1.2-.1-2.3-.3-3-.2-.8-.7-1.5-1.5-2.2h15.3c1,0,1.7-.1,2.2-.4v6c-1.1-1.4-3.4-2.1-6.8-2.1s-2.5,0-4,.2v8.6h4.5c1.7,0,2.9-.1,3.4-.4v5.2c-.7-1-2.2-1.5-4.5-1.5h-3.4v11.2c.9.1,1.7.3,2.5.4.8.1,1.5.2,2.2.3.7,0,1.4,0,2,0,3.4,0,6.3-1,8.6-3l-2.6,6.3h-19.4c.7-.7,1.2-1.4,1.5-2,.3-.6.4-1.3.4-2.1"></path><path class="st0" d="M177.7,123.7c0-1.8.3-3.7,1-5.6.6-1.9,1.7-3.8,3-5.4,1.4-1.7,3.2-3.1,5.5-4.1,2.3-1.1,4.9-1.6,8-1.6s6.2.6,8.8,1.9c2.6,1.3,4.7,3.1,6.2,5.6,1.6,2.4,2.4,5.3,2.5,8.5,0,2.5-.6,5.1-1.9,7.7-1.3,2.6-3.2,4.8-5.7,6.5-2.5,1.7-5.6,2.6-9.2,2.6s-5.3-.4-7.5-1.2c-2.2-.8-4.1-1.9-5.6-3.4-1.5-1.4-2.7-3.1-3.6-5.1-.9-2-1.4-4.1-1.6-6.3M183.7,123.4c0,1.8.3,3.5,1,5.1.7,1.6,1.6,2.9,2.7,4.1,1.1,1.1,2.5,2,3.9,2.6,1.5.6,3,.9,4.6.9s3.2-.3,4.5-1c1.4-.7,2.6-1.5,3.6-2.7,1-1.1,1.8-2.4,2.3-3.9.5-1.4.8-2.9.8-4.4s0-.6,0-.7c-.1-2.1-.7-4.2-1.7-6.3-1-2-2.5-3.7-4.3-4.9-1.8-1.2-3.9-1.9-6.3-1.9s-2.8.3-4.1.8c-1.3.5-2.5,1.3-3.6,2.4-1.1,1.1-1.9,2.4-2.6,3.9-.6,1.5-.9,3.3-.9,5.2s0,.2,0,.4c0,.1,0,.2,0,.4"></path><path class="st0" d="M231.1,133.8v-22c0-.7,0-1.3-.2-1.7-.1-.4-.3-.8-.5-1.2-.2-.3-.5-.7-.9-1-.4-.3-.6-.5-.6-.6h11.6c2.8,0,5.3.4,7.6,1.3,2.3.8,4.2,2,5.7,3.5,1.5,1.5,2.7,3.1,3.5,4.9.8,1.8,1.2,3.6,1.2,5.4s0,.3,0,.3c0,0,0,.2,0,.3-.1,2.6-.8,5.1-2,7.5-1.2,2.4-3,4.4-5.5,5.9-2.5,1.5-5.6,2.3-9.3,2.3s-.8,0-1.5,0h-11.2c.9-.5,1.5-1.2,1.8-1.9.3-.7.5-1.7.5-2.9M235.9,134.9c.9.3,2,.5,3.4.5s3.8-.4,5.9-1.1c2-.7,3.7-1.9,5.2-3.6,1.4-1.6,2.2-3.7,2.4-6.3,0-.3,0-.7,0-1.2,0-4.6-1.2-7.7-3.6-9.3-2.4-1.7-5.4-2.5-8.8-2.5s-2.4,0-4.4.3v23.1Z"></path><path class="st0" d="M263.5,134.6v-21.6c0-1.2-.1-2.3-.3-3-.2-.8-.7-1.5-1.5-2.2h15.3c1,0,1.7-.1,2.2-.4v6c-1.1-1.4-3.4-2.1-6.8-2.1s-2.5,0-4,.2v8.6h4.5c1.7,0,2.9-.1,3.4-.4v5.2c-.7-1-2.2-1.5-4.5-1.5h-3.4v11.2c.9.1,1.7.3,2.5.4.8.1,1.5.2,2.2.3.7,0,1.4,0,2,0,3.4,0,6.3-1,8.6-3l-2.6,6.3h-19.4c.7-.7,1.2-1.4,1.5-2,.3-.6.4-1.3.4-2.1"></path><path class="st0" d="M287.8,133.4v-22c0-.9,0-1.5-.2-1.9-.1-.4-.4-.8-.7-1.1-.4-.3-.7-.7-.9-1h9.3c-.3.2-.6.5-1,.8-.4.3-.7.7-.9,1.3-.2.5-.4,1.3-.4,2.4v22.8c1.3.1,2.5.3,3.7.4,1.1.1,2.1.2,2.8.2,1.6,0,3.1-.2,4.5-.6,1.3-.4,2.7-1.1,4-2.1l-2.6,6.3h-19.8c.9-.7,1.5-1.3,1.8-2,.3-.7.4-1.4.4-2.2s0-.4,0-.6c0-.1,0-.3,0-.5"></path></g><g><path class="st0" d="M71.4,162.9c0-2,.5-3.7,1.6-5,1-1.4,2.4-2.4,4.1-3,1.7-.6,3.5-1,5.5-1s.9,0,1.1,0c1.1,0,2.4.1,3.9.3,1.5.2,2.5.5,3.2.8v5.2c-1.1-.8-2.3-1.5-3.8-2.1-1.5-.5-2.9-.8-4.3-.8-2.5,0-4.3,1-5.3,2.9-.3.4-.4.9-.4,1.4,0,1,.5,1.9,1.5,2.9,1,.9,2.2,1.7,3.7,2.4l5.2,2.6c1,.5,1.9,1.1,2.9,1.8.9.7,1.8,1.5,2.4,2.5.7,1,1,2,1,3.2s-.3,2.9-1,4.2c-.7,1.3-1.6,2.3-2.9,3.2-1.2.9-2.6,1.5-4.3,2-1.6.4-3.3.7-5.2.7-2.7,0-5.5-.5-8.3-1.4l-1.1-6c2.9,2.5,6.1,3.8,9.8,3.8s3.3-.3,4.6-1c1.3-.7,2.1-1.6,2.3-2.8.1-.5.2-1,.2-1.4,0-1-.4-1.9-1.1-2.7-.8-.8-2.1-1.7-3.9-2.6l-5.2-2.6c-1.5-.7-2.9-1.7-4.2-2.9-1.3-1.3-2-2.8-2.1-4.5"></path><path class="st0" d="M99,181.9v-21.6c0-1.2-.1-2.3-.3-3-.2-.8-.7-1.5-1.5-2.2h15.3c1,0,1.7-.1,2.2-.4v6c-1.1-1.4-3.4-2.1-6.8-2.1s-2.5,0-4,.2v8.6h4.5c1.7,0,2.9-.1,3.4-.4v5.2c-.7-1-2.2-1.5-4.5-1.5h-3.4v11.2c.9.1,1.7.3,2.5.4.8.1,1.5.2,2.2.3.7,0,1.4,0,2,0,3.4,0,6.3-1,8.6-3l-2.6,6.3h-19.4c.7-.7,1.2-1.4,1.5-2,.3-.6.4-1.3.4-2.1"></path><path class="st0" d="M123.7,181.6v-21.3c0-1,0-1.9-.3-2.6-.2-.7-.4-1.2-.7-1.6-.3-.4-.6-.7-1-.9-.3-.2-.7-.4-1-.6h7.1l19,24.2v-19c0-1.5-.3-2.7-.8-3.6-.5-.9-1.3-1.5-2.2-1.6h9.3c-.6.4-1.1.7-1.5.9-.4.2-.7.6-1,1.2-.3.6-.5,1.5-.6,2.7v28c-.7,0-1.6-.4-2.7-1.1-1.1-.7-1.9-1.5-2.5-2.3l-17.9-22.8v19.8c0,.8,0,1.5.3,2.1.2.6.5,1.1.8,1.5.4.4.9.8,1.5,1.2h-9c.5-.3.9-.6,1.2-.8.3-.2.6-.5.8-.8.2-.3.4-.7.6-1.1.2-.4.3-1,.4-1.8"></path><path class="st0" d="M157.2,181.2v-22c0-.7,0-1.3-.2-1.7-.1-.4-.3-.8-.5-1.2-.2-.3-.5-.7-.9-1-.4-.3-.6-.5-.6-.6h11.6c2.8,0,5.3.4,7.6,1.3,2.3.8,4.2,2,5.7,3.5,1.5,1.5,2.7,3.1,3.5,4.9.8,1.8,1.2,3.6,1.2,5.4s0,.3,0,.3c0,0,0,.2,0,.3-.1,2.6-.8,5.1-2,7.5-1.2,2.4-3,4.4-5.5,5.9-2.5,1.5-5.6,2.3-9.3,2.3s-.8,0-1.5,0h-11.2c.9-.5,1.5-1.2,1.8-1.9.3-.7.5-1.7.5-2.9M162.1,182.3c.9.3,2,.5,3.4.5s3.8-.4,5.9-1.1c2-.7,3.7-1.9,5.2-3.6,1.4-1.6,2.2-3.7,2.4-6.3,0-.3,0-.7,0-1.2,0-4.6-1.2-7.7-3.6-9.3-2.4-1.7-5.4-2.5-8.8-2.5s-2.4,0-4.4.3v23.1Z"></path><path class="st0" d="M189.7,181.9v-21.6c0-1.2-.1-2.3-.3-3-.2-.8-.7-1.5-1.5-2.2h15.3c1,0,1.7-.1,2.2-.4v6c-1.1-1.4-3.4-2.1-6.8-2.1s-2.5,0-4,.2v8.6h4.5c1.7,0,2.9-.1,3.4-.4v5.2c-.7-1-2.2-1.5-4.5-1.5h-3.4v11.2c.9.1,1.7.3,2.5.4.8.1,1.5.2,2.2.3.7,0,1.4,0,2,0,3.4,0,6.3-1,8.6-3l-2.6,6.3h-19.4c.7-.7,1.2-1.4,1.5-2,.3-.6.4-1.3.4-2.1"></path><path class="st0" d="M213.9,182.3v-23.1c0-1,0-1.7-.2-2.3-.1-.6-.3-1-.5-1.3-.2-.3-.5-.5-.7-.7-.3-.2-.5-.3-.9-.5h10.4c1.6,0,3.1.1,4.5.4,1.3.3,2.5.8,3.6,1.4,1,.7,1.8,1.5,2.4,2.5.5,1,.8,2.2.8,3.5s-.4,2.9-1.1,4.1c-.7,1.2-1.7,2.2-2.8,2.9-1.2.8-2.3,1.3-3.5,1.5,1.5,1.9,2.8,3.6,3.9,5,1.1,1.4,2.2,2.7,3.3,4.1,1.1,1.3,2.3,2.5,3.5,3.6,1.2,1.1,2.5,2,3.8,2.7h-5.2c-.7,0-1.3,0-1.9-.2-.6-.1-1.1-.4-1.7-.8-.6-.4-1.3-1.1-2-1.9l-9.7-13.1c2.2-.8,3.8-1.5,4.9-2,1.1-.5,1.9-1.2,2.5-1.9.6-.7.9-1.7.9-2.8s0-.6,0-.7c0-1.5-.5-2.7-1.5-3.5-1-.8-2.5-1.3-4.4-1.3s-1.9.1-3,.3v23.9c0,.9.2,1.8.6,2.5.4.7.9,1.2,1.7,1.6h-9.7c.7-.2,1.3-.6,1.7-1.3.4-.7.6-1.5.6-2.4"></path><path class="st0" d="M236.7,171.1c0-1.8.3-3.7,1-5.6.6-1.9,1.7-3.8,3-5.4,1.4-1.7,3.2-3.1,5.5-4.1,2.3-1.1,4.9-1.6,8-1.6s6.2.6,8.8,1.9c2.6,1.3,4.7,3.1,6.2,5.6,1.6,2.4,2.4,5.3,2.5,8.5,0,2.5-.6,5.1-1.9,7.7-1.3,2.6-3.2,4.8-5.7,6.5-2.5,1.7-5.6,2.6-9.2,2.6s-5.3-.4-7.5-1.2c-2.2-.8-4.1-1.9-5.6-3.4-1.5-1.4-2.7-3.1-3.6-5.1-.9-2-1.4-4.1-1.6-6.3M242.7,170.7c0,1.8.3,3.5,1,5.1.7,1.6,1.6,2.9,2.7,4.1,1.1,1.1,2.5,2,3.9,2.6,1.5.6,3,.9,4.6.9s3.2-.3,4.5-1c1.4-.7,2.6-1.5,3.6-2.7,1-1.1,1.8-2.4,2.3-3.9.5-1.4.8-2.9.8-4.4s0-.6,0-.7c-.1-2.1-.7-4.2-1.7-6.3-1-2-2.5-3.7-4.3-4.9-1.8-1.2-3.9-1.9-6.3-1.9s-2.8.3-4.1.8c-1.3.5-2.5,1.3-3.6,2.4-1.1,1.1-1.9,2.4-2.6,3.9-.6,1.5-.9,3.3-.9,5.2s0,.2,0,.4c0,.1,0,.2,0,.4"></path></g></g></svg> 